<?xml version="1.0" encoding="utf-8"?>
<!-- Generator: Adobe Illustrator 27.1.1, SVG Export Plug-In . SVG Version: 6.00 Build 0)  -->
<svg  width="183" height="40" viewBox="0 0 183 40" fill="none" xmlns="http://www.w3.org/2000/svg">
<style type="text/css">
	.st0{fill:url(#SVGID_1_);}
	.st1{fill:#C8DAEA;}
	.st2{fill:#A9C9DD;}
	.st3{fill:url(#path2991_00000052824888802022973880000011026877051602767026_);}
	.st4{fill:#FFFFFF;}
</style>
<linearGradient id="SVGID_1_" gradientUnits="userSpaceOnUse" x1="0" y1="20" x2="183" y2="20">
	<stop  offset="0" style="stop-color:#37AEE2"/>
	<stop  offset="1" style="stop-color:#1E96C8"/>
</linearGradient>
<path class="st0" d="M0,6c0-3.3,2.7-6,6-6h171c3.3,0,6,2.7,6,6v28c0,3.3-2.7,6-6,6H6c-3.3,0-6-2.7-6-6V6z"/>
<path id="path2993" class="st1" d="M20.1,30c-0.7,0-0.6-0.3-0.8-0.9l-2-6.5l12.2-7.6l1.4,0.4l-1.2,3.3L20.1,30z"/>
<path id="path2989" class="st2" d="M20.1,30c0.5,0,0.7-0.2,1-0.5c0.4-0.4,6.2-6.1,6.2-6.1l-3.5-0.9l-3.3,2.1l-0.4,5.2V30z"/>
<linearGradient id="path2991_00000021837862962031695110000009262051403422032554_" gradientUnits="userSpaceOnUse" x1="-4.7909" y1="-111.3885" x2="-4.3759" y2="-110.7245" gradientTransform="matrix(10.4167 0 0 10.4167 75.3333 1181.4167)">
	<stop  offset="0" style="stop-color:#EFF7FC"/>
	<stop  offset="1" style="stop-color:#FFFFFF"/>
</linearGradient>
<path id="path2991" style="fill:url(#path2991_00000021837862962031695110000009262051403422032554_);" d="M20.4,24.7l8.4,6.2
	c1,0.5,1.6,0.3,1.9-0.9l3.4-16c0.3-1.4-0.5-2-1.5-1.6l-20,7.7c-1.4,0.6-1.3,1.3-0.2,1.6l5.1,1.6l11.9-7.5c0.6-0.3,1.1-0.2,0.7,0.2
	L20.4,24.7z"/>
<g>
	<path class="st4" d="M63.6,14.8v2.2h-3v8.2h-2.9v-8.2h-3v-2.2H63.6z"/>
	<path class="st4" d="M69.1,19.9c-0.1,0-0.3-0.1-0.6-0.1c-1.2,0-1.9,0.8-1.9,2.1v3.4h-2.7v-7.8h2.5l0.1,1.2c0.4-0.8,1.1-1.3,1.9-1.3
		c0.2,0,0.5,0,0.6,0.1V19.9z"/>
	<path class="st4" d="M77.7,17.6l-4,10.5H71l1.3-3l-2.9-7.4h2.8l1.4,4.5l1.3-4.5H77.7z"/>
	<path class="st4" d="M81.2,15.4c0-0.8,0.6-1.4,1.5-1.4c0.8,0,1.5,0.6,1.5,1.4c0,0.8-0.6,1.4-1.5,1.4C81.8,16.8,81.2,16.2,81.2,15.4
		z M81.3,25.3v-7.8H84v7.8H81.3z"/>
	<path class="st4" d="M92.9,20.2v5.1h-2.7v-4.4c0-1-0.4-1.4-1.1-1.4c-0.8,0-1.2,0.6-1.2,1.7v4.1h-2.7v-7.8h2.5l0.1,1.1
		c0.6-0.9,1.4-1.3,2.4-1.3C92,17.4,92.9,18.4,92.9,20.2z"/>
	<path class="st4" d="M105.6,14.8v2.2h-3v8.2h-2.9v-8.2h-3v-2.2H105.6z"/>
	<path class="st4" d="M112.8,22h-5.3c0,1,0.5,1.6,1.5,1.6c0.6,0,1-0.3,1.2-0.8h2.6c-0.3,1.6-1.9,2.7-3.9,2.7c-2.5,0-4.1-1.6-4.1-4.1
		c0-2.4,1.5-4.1,4-4.1c2.5,0,4,1.6,4,4.2V22z M110.1,20.5c-0.1-0.8-0.6-1.3-1.3-1.3c-0.8,0-1.3,0.5-1.3,1.3H110.1z"/>
	<path class="st4" d="M113.8,25.3V14.7h2.7v10.6H113.8z"/>
	<path class="st4" d="M125.6,22h-5.3c0,1,0.5,1.6,1.5,1.6c0.6,0,1-0.3,1.2-0.8h2.6c-0.3,1.6-1.9,2.7-3.9,2.7c-2.5,0-4.1-1.6-4.1-4.1
		c0-2.4,1.5-4.1,4-4.1c2.5,0,4,1.6,4,4.2V22z M122.9,20.5c-0.1-0.8-0.6-1.3-1.3-1.3c-0.8,0-1.3,0.5-1.3,1.3H122.9z"/>
	<path class="st4" d="M131.8,24.7v-1.1c-0.4,0.7-1.2,1.2-2.2,1.2c-1.9,0-3.2-1.5-3.2-3.7s1.3-3.8,3.2-3.8c1,0,1.9,0.5,2.3,1.2l0.1-1
		h2.5v7c0,2.3-1.6,3.6-4.1,3.6c-2.2,0-3.7-1.1-3.8-2.8h2.6c0.1,0.6,0.6,0.9,1.3,0.9C131.3,26.3,131.8,25.8,131.8,24.7z M130.4,19.3
		c-0.9,0-1.4,0.7-1.4,1.9c0,1.1,0.6,1.9,1.4,1.9c0.9,0,1.5-0.7,1.5-1.9C131.9,20,131.3,19.3,130.4,19.3z"/>
	<path class="st4" d="M140.9,19.9c-0.1,0-0.3-0.1-0.6-0.1c-1.2,0-1.9,0.8-1.9,2.1v3.4h-2.7v-7.8h2.5l0.1,1.2
		c0.4-0.8,1.1-1.3,1.9-1.3c0.2,0,0.5,0,0.6,0.1V19.9z"/>
	<path class="st4" d="M148.8,20.4v4.9h-2.4l-0.1-1c-0.4,0.8-1.2,1.1-2.3,1.1c-1.7,0-2.7-0.9-2.7-2.3c0-1.8,1.5-2.5,4.9-2.5v-0.1
		c0-0.9-0.3-1.2-1-1.2c-0.6,0-1,0.3-1.1,0.9h-2.5c0.1-1.7,1.5-2.7,3.8-2.7S148.8,18.4,148.8,20.4z M146.2,22.1
		c-1.6,0-2.3,0.3-2.3,0.9c0,0.5,0.4,0.8,1,0.8c0.8,0,1.3-0.4,1.3-1.2V22.1z"/>
	<path class="st4" d="M152.6,17.6l0.1,1.1c0.5-0.8,1.3-1.3,2.3-1.3s1.8,0.5,2.1,1.4c0.5-0.9,1.4-1.4,2.5-1.4c1.6,0,2.5,1.1,2.5,2.9
		v5.1h-2.6v-4.7c0-0.7-0.4-1.1-1-1.1c-0.7,0-1.1,0.5-1.1,1.5v4.3h-2.6v-4.7c0-0.7-0.4-1.1-1-1.1c-0.7,0-1.1,0.6-1.1,1.5v4.3h-2.6
		v-7.8H152.6z"/>
</g>
</svg>
