<svg width="387" height="99" viewBox="0 0 387 99" fill="none" xmlns="http://www.w3.org/2000/svg">
<rect width="387" height="99" rx="49.5" fill="#7AADE2"/>
<path d="M39.7734 67L51.5859 33.1797H57.8203V39.7422H55.6641L47.2031 67H39.7734ZM46.125 58.7969L47.8594 53.5H63.6328L65.3672 58.7969H46.125ZM64.2656 67L55.8047 39.7422V33.1797H59.9062L71.6953 67H64.2656ZM80.1094 67L68.7891 33.1797H76.6172L84.3516 59.7578H84.4922L92.2031 33.1797H100.055L88.7344 67H80.1094ZM103.523 67V33.1797H125.672V39.0156H110.602V48.0859H124.359V53.6875H110.602V67H103.523ZM140.109 67.5156C137.562 67.5156 135.359 66.9922 133.5 65.9453C131.641 64.8984 130.203 63.3984 129.188 61.4453C128.172 59.4922 127.664 57.1562 127.664 54.4375V54.3906C127.664 51.6875 128.18 49.3672 129.211 47.4297C130.242 45.4766 131.688 43.9766 133.547 42.9297C135.406 41.8828 137.586 41.3594 140.086 41.3594C142.602 41.3594 144.789 41.8828 146.648 42.9297C148.523 43.9609 149.977 45.4531 151.008 47.4062C152.039 49.3438 152.555 51.6719 152.555 54.3906V54.4375C152.555 57.1719 152.039 59.5156 151.008 61.4688C149.992 63.4219 148.555 64.9219 146.695 65.9688C144.836 67 142.641 67.5156 140.109 67.5156ZM140.133 62.1484C141.242 62.1484 142.203 61.8516 143.016 61.2578C143.844 60.6484 144.477 59.7734 144.914 58.6328C145.367 57.4766 145.594 56.0781 145.594 54.4375V54.3906C145.594 52.7656 145.367 51.3828 144.914 50.2422C144.461 49.1016 143.82 48.2344 142.992 47.6406C142.164 47.0312 141.195 46.7266 140.086 46.7266C138.992 46.7266 138.031 47.0312 137.203 47.6406C136.391 48.2344 135.758 49.1016 135.305 50.2422C134.852 51.3828 134.625 52.7656 134.625 54.3906V54.4375C134.625 56.0781 134.844 57.4766 135.281 58.6328C135.734 59.7734 136.375 60.6484 137.203 61.2578C138.031 61.8516 139.008 62.1484 140.133 62.1484ZM164.648 67.5156C162.805 67.5156 161.234 67.1406 159.938 66.3906C158.656 65.625 157.672 64.5391 156.984 63.1328C156.312 61.7266 155.977 60.0469 155.977 58.0938V41.875H162.82V56.6641C162.82 58.3047 163.203 59.5781 163.969 60.4844C164.75 61.3906 165.906 61.8438 167.438 61.8438C168.203 61.8438 168.891 61.7109 169.5 61.4453C170.125 61.1797 170.656 60.8047 171.094 60.3203C171.531 59.8203 171.867 59.2344 172.102 58.5625C172.336 57.875 172.453 57.125 172.453 56.3125V41.875H179.297V67H172.453V62.8516H172.312C171.875 63.8047 171.297 64.6328 170.578 65.3359C169.875 66.0391 169.023 66.5781 168.023 66.9531C167.039 67.3281 165.914 67.5156 164.648 67.5156ZM183.75 67V41.875H190.594V46H190.734C191.391 44.5625 192.359 43.4297 193.641 42.6016C194.922 41.7734 196.508 41.3594 198.398 41.3594C201.164 41.3594 203.297 42.1953 204.797 43.8672C206.312 45.5234 207.07 47.8281 207.07 50.7812V67H200.227V52.1875C200.227 50.5469 199.836 49.2812 199.055 48.3906C198.289 47.4844 197.141 47.0312 195.609 47.0312C194.594 47.0312 193.711 47.2656 192.961 47.7344C192.211 48.1875 191.625 48.8281 191.203 49.6562C190.797 50.4844 190.594 51.4531 190.594 52.5625V67H183.75ZM220.711 67.5156C218.602 67.5156 216.781 66.9922 215.25 65.9453C213.719 64.8984 212.539 63.3984 211.711 61.4453C210.898 59.4922 210.492 57.1562 210.492 54.4375V54.4141C210.492 51.6797 210.906 49.3438 211.734 47.4062C212.562 45.4531 213.734 43.9609 215.25 42.9297C216.781 41.8828 218.602 41.3594 220.711 41.3594C221.898 41.3594 222.992 41.5547 223.992 41.9453C224.992 42.3359 225.867 42.8984 226.617 43.6328C227.383 44.3516 227.992 45.2188 228.445 46.2344H228.586V33.1797H235.43V67H228.586V62.7109H228.445C228.008 63.7109 227.414 64.5703 226.664 65.2891C225.914 65.9922 225.039 66.5391 224.039 66.9297C223.039 67.3203 221.93 67.5156 220.711 67.5156ZM223.008 61.8438C224.117 61.8438 225.094 61.5469 225.938 60.9531C226.781 60.3438 227.438 59.4844 227.906 58.375C228.375 57.2656 228.609 55.9531 228.609 54.4375V54.4141C228.609 52.8984 228.367 51.5938 227.883 50.5C227.414 49.3906 226.758 48.5391 225.914 47.9453C225.086 47.3359 224.117 47.0312 223.008 47.0312C221.867 47.0312 220.883 47.3281 220.055 47.9219C219.227 48.5156 218.586 49.3672 218.133 50.4766C217.68 51.5703 217.453 52.8828 217.453 54.4141V54.4375C217.453 55.9531 217.672 57.2656 218.109 58.375C218.562 59.4844 219.203 60.3438 220.031 60.9531C220.875 61.5469 221.867 61.8438 223.008 61.8438ZM247.477 67.3984C245.805 67.3984 244.336 67.0781 243.07 66.4375C241.805 65.7812 240.812 64.8828 240.094 63.7422C239.391 62.5859 239.039 61.2734 239.039 59.8047V59.7578C239.039 58.2266 239.422 56.9219 240.188 55.8438C240.953 54.75 242.062 53.8906 243.516 53.2656C244.969 52.6406 246.734 52.2578 248.812 52.1172L258.609 51.5078V55.7734L249.844 56.3359C248.531 56.4141 247.531 56.7266 246.844 57.2734C246.156 57.8047 245.812 58.5156 245.812 59.4062V59.4531C245.812 60.375 246.164 61.1016 246.867 61.6328C247.57 62.1484 248.516 62.4062 249.703 62.4062C250.719 62.4062 251.625 62.2109 252.422 61.8203C253.234 61.4141 253.867 60.8672 254.32 60.1797C254.789 59.4766 255.023 58.6875 255.023 57.8125V50.1953C255.023 49.0859 254.672 48.2109 253.969 47.5703C253.266 46.9141 252.242 46.5859 250.898 46.5859C249.617 46.5859 248.602 46.8516 247.852 47.3828C247.102 47.9141 246.641 48.5859 246.469 49.3984L246.422 49.6094H240.164L240.188 49.3281C240.312 47.7812 240.82 46.4062 241.711 45.2031C242.617 44 243.867 43.0625 245.461 42.3906C247.07 41.7031 248.977 41.3594 251.18 41.3594C253.352 41.3594 255.234 41.7109 256.828 42.4141C258.422 43.1016 259.656 44.0781 260.531 45.3438C261.422 46.6094 261.867 48.0859 261.867 49.7734V67H255.023V63.25H254.883C254.414 64.1094 253.805 64.8516 253.055 65.4766C252.32 66.0859 251.484 66.5625 250.547 66.9062C249.609 67.2344 248.586 67.3984 247.477 67.3984ZM276.281 67.5156C273.5 67.5156 271.438 66.9297 270.094 65.7578C268.75 64.5859 268.078 62.6562 268.078 59.9688V47.0312H264.586V41.875H268.078V35.7344H274.992V41.875H279.586V47.0312H274.992V59.2188C274.992 60.3906 275.25 61.2109 275.766 61.6797C276.297 62.1328 277.078 62.3594 278.109 62.3594C278.422 62.3594 278.695 62.3516 278.93 62.3359C279.164 62.3047 279.383 62.2734 279.586 62.2422V67.2578C279.211 67.3203 278.742 67.375 278.18 67.4219C277.633 67.4844 277 67.5156 276.281 67.5156ZM283.5 67V41.875H290.344V67H283.5ZM286.922 38.6406C285.891 38.6406 285.023 38.2891 284.32 37.5859C283.617 36.8828 283.266 36.0469 283.266 35.0781C283.266 34.0938 283.617 33.2578 284.32 32.5703C285.023 31.8672 285.891 31.5156 286.922 31.5156C287.953 31.5156 288.82 31.8672 289.523 32.5703C290.227 33.2578 290.578 34.0938 290.578 35.0781C290.578 36.0469 290.227 36.8828 289.523 37.5859C288.82 38.2891 287.953 38.6406 286.922 38.6406ZM306.469 67.5156C303.922 67.5156 301.719 66.9922 299.859 65.9453C298 64.8984 296.562 63.3984 295.547 61.4453C294.531 59.4922 294.023 57.1562 294.023 54.4375V54.3906C294.023 51.6875 294.539 49.3672 295.57 47.4297C296.602 45.4766 298.047 43.9766 299.906 42.9297C301.766 41.8828 303.945 41.3594 306.445 41.3594C308.961 41.3594 311.148 41.8828 313.008 42.9297C314.883 43.9609 316.336 45.4531 317.367 47.4062C318.398 49.3438 318.914 51.6719 318.914 54.3906V54.4375C318.914 57.1719 318.398 59.5156 317.367 61.4688C316.352 63.4219 314.914 64.9219 313.055 65.9688C311.195 67 309 67.5156 306.469 67.5156ZM306.492 62.1484C307.602 62.1484 308.562 61.8516 309.375 61.2578C310.203 60.6484 310.836 59.7734 311.273 58.6328C311.727 57.4766 311.953 56.0781 311.953 54.4375V54.3906C311.953 52.7656 311.727 51.3828 311.273 50.2422C310.82 49.1016 310.18 48.2344 309.352 47.6406C308.523 47.0312 307.555 46.7266 306.445 46.7266C305.352 46.7266 304.391 47.0312 303.562 47.6406C302.75 48.2344 302.117 49.1016 301.664 50.2422C301.211 51.3828 300.984 52.7656 300.984 54.3906V54.4375C300.984 56.0781 301.203 57.4766 301.641 58.6328C302.094 59.7734 302.734 60.6484 303.562 61.2578C304.391 61.8516 305.367 62.1484 306.492 62.1484ZM322.453 67V41.875H329.297V46H329.438C330.094 44.5625 331.062 43.4297 332.344 42.6016C333.625 41.7734 335.211 41.3594 337.102 41.3594C339.867 41.3594 342 42.1953 343.5 43.8672C345.016 45.5234 345.773 47.8281 345.773 50.7812V67H338.93V52.1875C338.93 50.5469 338.539 49.2812 337.758 48.3906C336.992 47.4844 335.844 47.0312 334.312 47.0312C333.297 47.0312 332.414 47.2656 331.664 47.7344C330.914 48.1875 330.328 48.8281 329.906 49.6562C329.5 50.4844 329.297 51.4531 329.297 52.5625V67H322.453Z" fill="white"/>
</svg>
