<svg width="281" height="99" viewBox="0 0 281 99" fill="none" xmlns="http://www.w3.org/2000/svg">
<rect width="281" height="99" rx="49.5" fill="#2192E8"/>
<path d="M63.5547 67.5859C60.2578 67.5859 57.3984 66.8828 54.9766 65.4766C52.5703 64.0703 50.7109 62.0625 49.3984 59.4531C48.1016 56.8281 47.4531 53.7031 47.4531 50.0781V50.0547C47.4531 46.4141 48.1094 43.2969 49.4219 40.7031C50.7344 38.0938 52.5938 36.0938 55 34.7031C57.4062 33.2969 60.2578 32.5938 63.5547 32.5938C66.2891 32.5938 68.7266 33.125 70.8672 34.1875C73.0078 35.25 74.7266 36.7109 76.0234 38.5703C77.3203 40.4141 78.0781 42.5391 78.2969 44.9453L78.3203 45.1562H71.4297L71.3359 44.7578C71.0703 43.5078 70.5938 42.4219 69.9062 41.5C69.2188 40.5781 68.3359 39.8672 67.2578 39.3672C66.1953 38.8516 64.9609 38.5938 63.5547 38.5938C61.7422 38.5938 60.1719 39.0547 58.8438 39.9766C57.5156 40.8984 56.4844 42.2188 55.75 43.9375C55.0312 45.6406 54.6719 47.6719 54.6719 50.0312V50.0547C54.6719 52.4297 55.0312 54.4844 55.75 56.2188C56.4844 57.9375 57.5156 59.2656 58.8438 60.2031C60.1875 61.125 61.7578 61.5859 63.5547 61.5859C64.9141 61.5859 66.125 61.3359 67.1875 60.8359C68.2656 60.3359 69.1641 59.6172 69.8828 58.6797C70.6016 57.7266 71.1094 56.5781 71.4062 55.2344L71.4531 55H78.3438L78.3203 55.2578C78.1016 57.6484 77.3359 59.7734 76.0234 61.6328C74.7266 63.4922 73.0078 64.9531 70.8672 66.0156C68.7266 67.0625 66.2891 67.5859 63.5547 67.5859ZM82.3047 67V33.1797H89.1484V67H82.3047ZM105.297 67.5156C102.75 67.5156 100.547 66.9922 98.6875 65.9453C96.8281 64.8984 95.3906 63.3984 94.375 61.4453C93.3594 59.4922 92.8516 57.1562 92.8516 54.4375V54.3906C92.8516 51.6875 93.3672 49.3672 94.3984 47.4297C95.4297 45.4766 96.875 43.9766 98.7344 42.9297C100.594 41.8828 102.773 41.3594 105.273 41.3594C107.789 41.3594 109.977 41.8828 111.836 42.9297C113.711 43.9609 115.164 45.4531 116.195 47.4062C117.227 49.3438 117.742 51.6719 117.742 54.3906V54.4375C117.742 57.1719 117.227 59.5156 116.195 61.4688C115.18 63.4219 113.742 64.9219 111.883 65.9688C110.023 67 107.828 67.5156 105.297 67.5156ZM105.32 62.1484C106.43 62.1484 107.391 61.8516 108.203 61.2578C109.031 60.6484 109.664 59.7734 110.102 58.6328C110.555 57.4766 110.781 56.0781 110.781 54.4375V54.3906C110.781 52.7656 110.555 51.3828 110.102 50.2422C109.648 49.1016 109.008 48.2344 108.18 47.6406C107.352 47.0312 106.383 46.7266 105.273 46.7266C104.18 46.7266 103.219 47.0312 102.391 47.6406C101.578 48.2344 100.945 49.1016 100.492 50.2422C100.039 51.3828 99.8125 52.7656 99.8125 54.3906V54.4375C99.8125 56.0781 100.031 57.4766 100.469 58.6328C100.922 59.7734 101.562 60.6484 102.391 61.2578C103.219 61.8516 104.195 62.1484 105.32 62.1484ZM129.836 67.5156C127.992 67.5156 126.422 67.1406 125.125 66.3906C123.844 65.625 122.859 64.5391 122.172 63.1328C121.5 61.7266 121.164 60.0469 121.164 58.0938V41.875H128.008V56.6641C128.008 58.3047 128.391 59.5781 129.156 60.4844C129.938 61.3906 131.094 61.8438 132.625 61.8438C133.391 61.8438 134.078 61.7109 134.688 61.4453C135.312 61.1797 135.844 60.8047 136.281 60.3203C136.719 59.8203 137.055 59.2344 137.289 58.5625C137.523 57.875 137.641 57.125 137.641 56.3125V41.875H144.484V67H137.641V62.8516H137.5C137.062 63.8047 136.484 64.6328 135.766 65.3359C135.062 66.0391 134.211 66.5781 133.211 66.9531C132.227 67.3281 131.102 67.5156 129.836 67.5156ZM158.242 67.5156C156.133 67.5156 154.312 66.9922 152.781 65.9453C151.25 64.8984 150.07 63.3984 149.242 61.4453C148.43 59.4922 148.023 57.1562 148.023 54.4375V54.4141C148.023 51.6797 148.438 49.3438 149.266 47.4062C150.094 45.4531 151.266 43.9609 152.781 42.9297C154.312 41.8828 156.133 41.3594 158.242 41.3594C159.43 41.3594 160.523 41.5547 161.523 41.9453C162.523 42.3359 163.398 42.8984 164.148 43.6328C164.914 44.3516 165.523 45.2188 165.977 46.2344H166.117V33.1797H172.961V67H166.117V62.7109H165.977C165.539 63.7109 164.945 64.5703 164.195 65.2891C163.445 65.9922 162.57 66.5391 161.57 66.9297C160.57 67.3203 159.461 67.5156 158.242 67.5156ZM160.539 61.8438C161.648 61.8438 162.625 61.5469 163.469 60.9531C164.312 60.3438 164.969 59.4844 165.438 58.375C165.906 57.2656 166.141 55.9531 166.141 54.4375V54.4141C166.141 52.8984 165.898 51.5938 165.414 50.5C164.945 49.3906 164.289 48.5391 163.445 47.9453C162.617 47.3359 161.648 47.0312 160.539 47.0312C159.398 47.0312 158.414 47.3281 157.586 47.9219C156.758 48.5156 156.117 49.3672 155.664 50.4766C155.211 51.5703 154.984 52.8828 154.984 54.4141V54.4375C154.984 55.9531 155.203 57.2656 155.641 58.375C156.094 59.4844 156.734 60.3438 157.562 60.9531C158.406 61.5469 159.398 61.8438 160.539 61.8438ZM184.914 56.9922V48.6484H185.359L197.758 33.1797H205.633L193.211 48.4609H191.828L184.914 56.9922ZM178.117 67V33.1797H185.195V67H178.117ZM198.039 67L187.188 50.9688L192.297 46.3281L206.5 67H198.039ZM209.031 67V41.875H215.875V67H209.031ZM212.453 38.6406C211.422 38.6406 210.555 38.2891 209.852 37.5859C209.148 36.8828 208.797 36.0469 208.797 35.0781C208.797 34.0938 209.148 33.2578 209.852 32.5703C210.555 31.8672 211.422 31.5156 212.453 31.5156C213.484 31.5156 214.352 31.8672 215.055 32.5703C215.758 33.2578 216.109 34.0938 216.109 35.0781C216.109 36.0469 215.758 36.8828 215.055 37.5859C214.352 38.2891 213.484 38.6406 212.453 38.6406ZM230.453 67.5156C227.672 67.5156 225.609 66.9297 224.266 65.7578C222.922 64.5859 222.25 62.6562 222.25 59.9688V47.0312H218.758V41.875H222.25V35.7344H229.164V41.875H233.758V47.0312H229.164V59.2188C229.164 60.3906 229.422 61.2109 229.938 61.6797C230.469 62.1328 231.25 62.3594 232.281 62.3594C232.594 62.3594 232.867 62.3516 233.102 62.3359C233.336 62.3047 233.555 62.2734 233.758 62.2422V67.2578C233.383 67.3203 232.914 67.375 232.352 67.4219C231.805 67.4844 231.172 67.5156 230.453 67.5156Z" fill="white"/>
</svg>
