<svg width="241" height="99" viewBox="0 0 241 99" fill="none" xmlns="http://www.w3.org/2000/svg">
<rect width="241" height="99" rx="49.5" fill="#01CDC8"/>
<path d="M52.1094 67.5859C48.8125 67.5859 45.9531 66.8828 43.5312 65.4766C41.125 64.0703 39.2656 62.0625 37.9531 59.4531C36.6562 56.8281 36.0078 53.7031 36.0078 50.0781V50.0547C36.0078 46.4141 36.6641 43.2969 37.9766 40.7031C39.2891 38.0938 41.1484 36.0938 43.5547 34.7031C45.9609 33.2969 48.8125 32.5938 52.1094 32.5938C54.8438 32.5938 57.2812 33.125 59.4219 34.1875C61.5625 35.25 63.2812 36.7109 64.5781 38.5703C65.875 40.4141 66.6328 42.5391 66.8516 44.9453L66.875 45.1562H59.9844L59.8906 44.7578C59.625 43.5078 59.1484 42.4219 58.4609 41.5C57.7734 40.5781 56.8906 39.8672 55.8125 39.3672C54.75 38.8516 53.5156 38.5938 52.1094 38.5938C50.2969 38.5938 48.7266 39.0547 47.3984 39.9766C46.0703 40.8984 45.0391 42.2188 44.3047 43.9375C43.5859 45.6406 43.2266 47.6719 43.2266 50.0312V50.0547C43.2266 52.4297 43.5859 54.4844 44.3047 56.2188C45.0391 57.9375 46.0703 59.2656 47.3984 60.2031C48.7422 61.125 50.3125 61.5859 52.1094 61.5859C53.4688 61.5859 54.6797 61.3359 55.7422 60.8359C56.8203 60.3359 57.7188 59.6172 58.4375 58.6797C59.1562 57.7266 59.6641 56.5781 59.9609 55.2344L60.0078 55H66.8984L66.875 55.2578C66.6562 57.6484 65.8906 59.7734 64.5781 61.6328C63.2812 63.4922 61.5625 64.9531 59.4219 66.0156C57.2812 67.0625 54.8438 67.5859 52.1094 67.5859ZM82.2266 67.5156C79.6797 67.5156 77.4766 66.9922 75.6172 65.9453C73.7578 64.8984 72.3203 63.3984 71.3047 61.4453C70.2891 59.4922 69.7812 57.1562 69.7812 54.4375V54.3906C69.7812 51.6875 70.2969 49.3672 71.3281 47.4297C72.3594 45.4766 73.8047 43.9766 75.6641 42.9297C77.5234 41.8828 79.7031 41.3594 82.2031 41.3594C84.7188 41.3594 86.9062 41.8828 88.7656 42.9297C90.6406 43.9609 92.0938 45.4531 93.125 47.4062C94.1562 49.3438 94.6719 51.6719 94.6719 54.3906V54.4375C94.6719 57.1719 94.1562 59.5156 93.125 61.4688C92.1094 63.4219 90.6719 64.9219 88.8125 65.9688C86.9531 67 84.7578 67.5156 82.2266 67.5156ZM82.25 62.1484C83.3594 62.1484 84.3203 61.8516 85.1328 61.2578C85.9609 60.6484 86.5938 59.7734 87.0312 58.6328C87.4844 57.4766 87.7109 56.0781 87.7109 54.4375V54.3906C87.7109 52.7656 87.4844 51.3828 87.0312 50.2422C86.5781 49.1016 85.9375 48.2344 85.1094 47.6406C84.2812 47.0312 83.3125 46.7266 82.2031 46.7266C81.1094 46.7266 80.1484 47.0312 79.3203 47.6406C78.5078 48.2344 77.875 49.1016 77.4219 50.2422C76.9688 51.3828 76.7422 52.7656 76.7422 54.3906V54.4375C76.7422 56.0781 76.9609 57.4766 77.3984 58.6328C77.8516 59.7734 78.4922 60.6484 79.3203 61.2578C80.1484 61.8516 81.125 62.1484 82.25 62.1484ZM98.2109 67V41.875H105.055V46.2578H105.195C105.57 44.7109 106.25 43.5078 107.234 42.6484C108.219 41.7891 109.445 41.3594 110.914 41.3594C111.289 41.3594 111.648 41.3828 111.992 41.4297C112.336 41.4766 112.633 41.5391 112.883 41.6172V47.6406C112.602 47.5312 112.242 47.4453 111.805 47.3828C111.367 47.3047 110.898 47.2656 110.398 47.2656C109.273 47.2656 108.312 47.4844 107.516 47.9219C106.719 48.3594 106.109 49 105.688 49.8438C105.266 50.6875 105.055 51.7188 105.055 52.9375V67H98.2109ZM126.336 67.5156C123.773 67.5156 121.57 66.9922 119.727 65.9453C117.883 64.8828 116.461 63.375 115.461 61.4219C114.477 59.4688 113.984 57.1562 113.984 54.4844V54.4609C113.984 51.7891 114.477 49.4766 115.461 47.5234C116.461 45.5547 117.859 44.0391 119.656 42.9766C121.469 41.8984 123.602 41.3594 126.055 41.3594C128.508 41.3594 130.625 41.8828 132.406 42.9297C134.203 43.9609 135.586 45.4219 136.555 47.3125C137.539 49.2031 138.031 51.4141 138.031 53.9453V56.0547H117.336V51.7422H134.797L131.539 55.7734V53.1484C131.539 51.6797 131.312 50.4531 130.859 49.4688C130.406 48.4688 129.773 47.7188 128.961 47.2188C128.164 46.7188 127.234 46.4688 126.172 46.4688C125.109 46.4688 124.164 46.7266 123.336 47.2422C122.523 47.7578 121.883 48.5156 121.414 49.5156C120.961 50.5 120.734 51.7109 120.734 53.1484V55.7969C120.734 57.1875 120.961 58.375 121.414 59.3594C121.883 60.3438 122.547 61.1016 123.406 61.6328C124.266 62.1484 125.289 62.4062 126.477 62.4062C127.414 62.4062 128.227 62.2578 128.914 61.9609C129.602 61.6641 130.164 61.2891 130.602 60.8359C131.039 60.3828 131.336 59.9219 131.492 59.4531L131.539 59.3125H137.82L137.75 59.5703C137.562 60.4922 137.195 61.4219 136.648 62.3594C136.102 63.2969 135.359 64.1562 134.422 64.9375C133.5 65.7188 132.367 66.3438 131.023 66.8125C129.695 67.2812 128.133 67.5156 126.336 67.5156ZM142.156 67V33.1797H150.336L159.945 57.4844H160.086L169.695 33.1797H177.875V67H171.57V44.125H168.289L175.367 34.1172L162.242 67H157.789L144.664 34.1172L151.742 44.125H148.461V67H142.156ZM183.5 67V33.1797H190.578V61.1641H205.367V67H183.5Z" fill="white"/>
</svg>
