<svg width="119" height="30" viewBox="0 0 119 30" fill="none" xmlns="http://www.w3.org/2000/svg">
<g clip-path="url(#clip0_39_28)">
<path d="M0 15C0 6.71573 6.71573 0 15 0H103.2C111.484 0 118.2 6.71573 118.2 15C118.2 23.2843 111.484 30 103.2 30H15C6.71573 30 0 23.2843 0 15Z" fill="#FFF192"/>
<path d="M39.6401 20.8V6.48004H44.6801C45.3601 6.48004 45.9934 6.59337 46.5801 6.82004C47.1801 7.03337 47.7001 7.34004 48.1401 7.74004C48.5801 8.14004 48.9268 8.62004 49.1801 9.18004C49.4334 9.72671 49.5601 10.3334 49.5601 11C49.5601 11.68 49.4334 12.3 49.1801 12.86C48.9268 13.4067 48.5801 13.88 48.1401 14.28C47.7001 14.68 47.1801 14.9934 46.5801 15.22C45.9934 15.4334 45.3601 15.54 44.6801 15.54H42.3401V20.8H39.6401ZM44.7201 12.98C45.4268 12.98 45.9601 12.78 46.3201 12.38C46.6801 11.98 46.8601 11.52 46.8601 11C46.8601 10.7467 46.8134 10.5 46.7201 10.26C46.6401 10.02 46.5068 9.81337 46.3201 9.64004C46.1468 9.45337 45.9268 9.3067 45.6601 9.20004C45.3934 9.09337 45.0801 9.04004 44.7201 9.04004H42.3401V12.98H44.7201ZM54.236 20.32L50.116 11H53.096L55.576 16.94H55.716L58.0961 11H61.0161L54.876 25.12H52.056L54.236 20.32ZM63.2907 13.24H61.5707V11H63.2907V8.00004H65.9107V11H68.3107V13.24H65.9107V17.04C65.9107 17.2667 65.9307 17.48 65.9707 17.68C66.0241 17.8667 66.1174 18.0267 66.2507 18.16C66.4374 18.3734 66.7041 18.48 67.0507 18.48C67.2774 18.48 67.4574 18.46 67.5907 18.42C67.7241 18.3667 67.8507 18.3 67.9707 18.22L68.7107 20.52C68.4041 20.6667 68.0707 20.7734 67.7107 20.84C67.3641 20.92 66.9774 20.96 66.5507 20.96C66.0574 20.96 65.6107 20.8867 65.2107 20.74C64.8241 20.58 64.4974 20.3667 64.2307 20.1C63.6041 19.5 63.2907 18.6467 63.2907 17.54V13.24ZM70.3357 6.48004H72.9557V10.5L72.7957 12.28H72.9557C73.2357 11.8134 73.6357 11.4334 74.1557 11.14C74.6891 10.8334 75.2824 10.68 75.9357 10.68C77.2024 10.68 78.1357 11.0534 78.7357 11.8C79.3491 12.5467 79.6557 13.5667 79.6557 14.86V20.8H77.0357V15.18C77.0357 14.5 76.8757 13.9867 76.5557 13.64C76.2357 13.28 75.7891 13.1 75.2157 13.1C74.8557 13.1 74.5357 13.18 74.2557 13.34C73.9757 13.4867 73.7357 13.6934 73.5357 13.96C73.3491 14.2267 73.2024 14.54 73.0957 14.9C73.0024 15.2467 72.9557 15.62 72.9557 16.02V20.8H70.3357V6.48004ZM86.4601 10.68C87.2201 10.68 87.9134 10.8134 88.5401 11.08C89.1801 11.3334 89.7268 11.6934 90.1801 12.16C90.6468 12.6134 91.0068 13.16 91.2601 13.8C91.5268 14.44 91.6601 15.14 91.6601 15.9C91.6601 16.66 91.5268 17.36 91.2601 18C91.0068 18.64 90.6468 19.1934 90.1801 19.66C89.7268 20.1134 89.1801 20.4734 88.5401 20.74C87.9134 20.9934 87.2201 21.12 86.4601 21.12C85.7001 21.12 85.0001 20.9934 84.3601 20.74C83.7334 20.4734 83.1868 20.1134 82.7201 19.66C82.2668 19.1934 81.9068 18.64 81.6401 18C81.3868 17.36 81.2601 16.66 81.2601 15.9C81.2601 15.14 81.3868 14.44 81.6401 13.8C81.9068 13.16 82.2668 12.6134 82.7201 12.16C83.1868 11.6934 83.7334 11.3334 84.3601 11.08C85.0001 10.8134 85.7001 10.68 86.4601 10.68ZM86.4601 18.7C86.7934 18.7 87.1134 18.64 87.4201 18.52C87.7401 18.3867 88.0201 18.2 88.2601 17.96C88.5001 17.72 88.6868 17.4267 88.8201 17.08C88.9668 16.7334 89.0401 16.34 89.0401 15.9C89.0401 15.46 88.9668 15.0667 88.8201 14.72C88.6868 14.3734 88.5001 14.08 88.2601 13.84C88.0201 13.6 87.7401 13.42 87.4201 13.3C87.1134 13.1667 86.7934 13.1 86.4601 13.1C86.1134 13.1 85.7868 13.1667 85.4801 13.3C85.1734 13.42 84.9001 13.6 84.6601 13.84C84.4201 14.08 84.2268 14.3734 84.0801 14.72C83.9468 15.0667 83.8801 15.46 83.8801 15.9C83.8801 16.34 83.9468 16.7334 84.0801 17.08C84.2268 17.4267 84.4201 17.72 84.6601 17.96C84.9001 18.2 85.1734 18.3867 85.4801 18.52C85.7868 18.64 86.1134 18.7 86.4601 18.7ZM95.6082 12.28H95.7682C96.0749 11.7867 96.4882 11.4 97.0082 11.12C97.5282 10.8267 98.1216 10.68 98.7882 10.68C99.4016 10.68 99.9416 10.78 100.408 10.98C100.875 11.18 101.255 11.4667 101.548 11.84C101.855 12.2 102.081 12.64 102.228 13.16C102.388 13.6667 102.468 14.2334 102.468 14.86V20.8H99.8482V15.18C99.8482 14.4734 99.6882 13.9534 99.3682 13.62C99.0616 13.2734 98.6082 13.1 98.0082 13.1C97.6482 13.1 97.3282 13.18 97.0482 13.34C96.7816 13.4867 96.5482 13.6934 96.3482 13.96C96.1616 14.2134 96.0149 14.52 95.9082 14.88C95.8149 15.2267 95.7682 15.6 95.7682 16V20.8H93.1482V11H95.6082V12.28Z" fill="#211B00"/>
<mask id="mask0_39_28" style="mask-type:luminance" maskUnits="userSpaceOnUse" x="14" y="6" width="19" height="18">
<path d="M32.3999 6H14.3999V24H32.3999V6Z" fill="white"/>
</mask>
<g mask="url(#mask0_39_28)">
<path d="M27.8999 8.25C27.8999 7.00736 25.8852 6 23.3999 6C20.9146 6 18.8999 7.00736 18.8999 8.25V21.75C18.8999 22.9926 20.9146 24 23.3999 24C25.8852 24 27.8999 22.9926 27.8999 21.75V8.25Z" fill="#211B00"/>
<path d="M30.1499 10.5H16.6499C15.4073 10.5 14.3999 12.5147 14.3999 15C14.3999 17.4853 15.4073 19.5 16.6499 19.5H30.1499C31.3925 19.5 32.3999 17.4853 32.3999 15C32.3999 12.5147 31.3925 10.5 30.1499 10.5Z" fill="#211B00"/>
<path d="M20.9248 9.08248C21.3846 9.08248 21.7573 8.70976 21.7573 8.24998C21.7573 7.7902 21.3846 7.41748 20.9248 7.41748C20.465 7.41748 20.0923 7.7902 20.0923 8.24998C20.0923 8.70976 20.465 9.08248 20.9248 9.08248Z" fill="#FFF192"/>
<path d="M25.875 22.5825C26.3348 22.5825 26.7075 22.2098 26.7075 21.75C26.7075 21.2902 26.3348 20.9175 25.875 20.9175C25.4152 20.9175 25.0425 21.2902 25.0425 21.75C25.0425 22.2098 25.4152 22.5825 25.875 22.5825Z" fill="#FFF192"/>
<path d="M18.8999 10.275H23.3999" stroke="#FFF192"/>
<path d="M23.3999 19.725H27.8999" stroke="#FFF192"/>
<path d="M18.6748 19.5C18.6748 15 19.7998 15 23.1748 15C26.9998 15 28.1248 15 28.1248 10.5" stroke="#FFF192"/>
</g>
</g>
<defs>
<clipPath id="clip0_39_28">
<rect width="119" height="30" fill="white"/>
</clipPath>
</defs>
</svg>
