<svg width="270" height="99" viewBox="0 0 270 99" fill="none" xmlns="http://www.w3.org/2000/svg">
<rect width="270" height="99" rx="49.5" fill="#89699B"/>
<path d="M54.5156 67.5859C51.8438 67.5859 49.5078 67.1953 47.5078 66.4141C45.5234 65.6172 43.9609 64.4844 42.8203 63.0156C41.6797 61.5312 41.0391 59.75 40.8984 57.6719L40.875 57.2969H47.5547L47.6016 57.5547C47.7578 58.4297 48.1484 59.1875 48.7734 59.8281C49.4141 60.4531 50.2422 60.9453 51.2578 61.3047C52.2734 61.6484 53.4219 61.8203 54.7031 61.8203C56.0156 61.8203 57.1406 61.6484 58.0781 61.3047C59.0312 60.9453 59.7656 60.4453 60.2812 59.8047C60.8125 59.1484 61.0781 58.3906 61.0781 57.5312V57.5078C61.0781 56.3672 60.625 55.4766 59.7188 54.8359C58.8281 54.1797 57.3281 53.6328 55.2188 53.1953L51.6562 52.4922C48.3281 51.8203 45.8203 50.6875 44.1328 49.0938C42.4453 47.5 41.6016 45.4297 41.6016 42.8828V42.8594C41.6016 40.7969 42.1562 39 43.2656 37.4688C44.375 35.9219 45.8984 34.7266 47.8359 33.8828C49.7734 33.0234 51.9922 32.5938 54.4922 32.5938C57.1016 32.5938 59.3516 33 61.2422 33.8125C63.1484 34.625 64.6328 35.7734 65.6953 37.2578C66.7578 38.7422 67.3438 40.4688 67.4531 42.4375L67.4766 42.8828H60.7969L60.7734 42.6016C60.6484 41.7109 60.3125 40.9531 59.7656 40.3281C59.2188 39.6875 58.4922 39.1953 57.5859 38.8516C56.6953 38.5078 55.6641 38.3359 54.4922 38.3359C53.2891 38.3359 52.25 38.5156 51.375 38.875C50.5 39.2188 49.8281 39.6953 49.3594 40.3047C48.9062 40.9141 48.6797 41.625 48.6797 42.4375V42.4609C48.6797 43.5234 49.1328 44.3828 50.0391 45.0391C50.9453 45.6953 52.3672 46.2188 54.3047 46.6094L57.8906 47.3359C60.25 47.8047 62.1875 48.4531 63.7031 49.2812C65.2188 50.1094 66.3359 51.1562 67.0547 52.4219C67.7891 53.6719 68.1562 55.1797 68.1562 56.9453V56.9688C68.1562 59.1406 67.6094 61.0234 66.5156 62.6172C65.4375 64.1953 63.875 65.4219 61.8281 66.2969C59.7969 67.1562 57.3594 67.5859 54.5156 67.5859ZM71.9062 75.2031V41.875H78.75V46.2578H78.9141C79.3672 45.2422 79.9609 44.3672 80.6953 43.6328C81.4453 42.8984 82.3125 42.3359 83.2969 41.9453C84.2969 41.5547 85.3906 41.3594 86.5781 41.3594C88.7031 41.3594 90.5312 41.8828 92.0625 42.9297C93.5938 43.9609 94.7734 45.4531 95.6016 47.4062C96.4297 49.3594 96.8438 51.6953 96.8438 54.4141V54.4375C96.8438 57.1562 96.4297 59.4922 95.6016 61.4453C94.7891 63.3984 93.625 64.8984 92.1094 65.9453C90.5938 66.9922 88.7812 67.5156 86.6719 67.5156C85.4844 67.5156 84.3828 67.3203 83.3672 66.9297C82.3516 66.5391 81.4688 65.9922 80.7188 65.2891C79.9688 64.5703 79.3594 63.7109 78.8906 62.7109H78.75V75.2031H71.9062ZM84.3281 61.8438C85.4688 61.8438 86.4531 61.5469 87.2812 60.9531C88.1094 60.3438 88.75 59.4844 89.2031 58.375C89.6562 57.2656 89.8828 55.9531 89.8828 54.4375V54.4141C89.8828 52.8828 89.6562 51.5625 89.2031 50.4531C88.75 49.3438 88.1016 48.5 87.2578 47.9219C86.4297 47.3281 85.4531 47.0312 84.3281 47.0312C83.2188 47.0312 82.2422 47.3359 81.3984 47.9453C80.5547 48.5391 79.8984 49.3906 79.4297 50.5C78.9609 51.5938 78.7266 52.9062 78.7266 54.4375V54.4609C78.7266 55.9609 78.9609 57.2656 79.4297 58.375C79.9141 59.4844 80.5703 60.3438 81.3984 60.9531C82.2422 61.5469 83.2188 61.8438 84.3281 61.8438ZM100.406 67V41.875H107.25V46.2578H107.391C107.766 44.7109 108.445 43.5078 109.43 42.6484C110.414 41.7891 111.641 41.3594 113.109 41.3594C113.484 41.3594 113.844 41.3828 114.188 41.4297C114.531 41.4766 114.828 41.5391 115.078 41.6172V47.6406C114.797 47.5312 114.438 47.4453 114 47.3828C113.562 47.3047 113.094 47.2656 112.594 47.2656C111.469 47.2656 110.508 47.4844 109.711 47.9219C108.914 48.3594 108.305 49 107.883 49.8438C107.461 50.6875 107.25 51.7188 107.25 52.9375V67H100.406ZM118.031 67V41.875H124.875V67H118.031ZM121.453 38.6406C120.422 38.6406 119.555 38.2891 118.852 37.5859C118.148 36.8828 117.797 36.0469 117.797 35.0781C117.797 34.0938 118.148 33.2578 118.852 32.5703C119.555 31.8672 120.422 31.5156 121.453 31.5156C122.484 31.5156 123.352 31.8672 124.055 32.5703C124.758 33.2578 125.109 34.0938 125.109 35.0781C125.109 36.0469 124.758 36.8828 124.055 37.5859C123.352 38.2891 122.484 38.6406 121.453 38.6406ZM139.453 67.5156C136.672 67.5156 134.609 66.9297 133.266 65.7578C131.922 64.5859 131.25 62.6562 131.25 59.9688V47.0312H127.758V41.875H131.25V35.7344H138.164V41.875H142.758V47.0312H138.164V59.2188C138.164 60.3906 138.422 61.2109 138.938 61.6797C139.469 62.1328 140.25 62.3594 141.281 62.3594C141.594 62.3594 141.867 62.3516 142.102 62.3359C142.336 62.3047 142.555 62.2734 142.758 62.2422V67.2578C142.383 67.3203 141.914 67.375 141.352 67.4219C140.805 67.4844 140.172 67.5156 139.453 67.5156ZM157.641 67.5156C155.078 67.5156 152.875 66.9922 151.031 65.9453C149.188 64.8828 147.766 63.375 146.766 61.4219C145.781 59.4688 145.289 57.1562 145.289 54.4844V54.4609C145.289 51.7891 145.781 49.4766 146.766 47.5234C147.766 45.5547 149.164 44.0391 150.961 42.9766C152.773 41.8984 154.906 41.3594 157.359 41.3594C159.812 41.3594 161.93 41.8828 163.711 42.9297C165.508 43.9609 166.891 45.4219 167.859 47.3125C168.844 49.2031 169.336 51.4141 169.336 53.9453V56.0547H148.641V51.7422H166.102L162.844 55.7734V53.1484C162.844 51.6797 162.617 50.4531 162.164 49.4688C161.711 48.4688 161.078 47.7188 160.266 47.2188C159.469 46.7188 158.539 46.4688 157.477 46.4688C156.414 46.4688 155.469 46.7266 154.641 47.2422C153.828 47.7578 153.188 48.5156 152.719 49.5156C152.266 50.5 152.039 51.7109 152.039 53.1484V55.7969C152.039 57.1875 152.266 58.375 152.719 59.3594C153.188 60.3438 153.852 61.1016 154.711 61.6328C155.57 62.1484 156.594 62.4062 157.781 62.4062C158.719 62.4062 159.531 62.2578 160.219 61.9609C160.906 61.6641 161.469 61.2891 161.906 60.8359C162.344 60.3828 162.641 59.9219 162.797 59.4531L162.844 59.3125H169.125L169.055 59.5703C168.867 60.4922 168.5 61.4219 167.953 62.3594C167.406 63.2969 166.664 64.1562 165.727 64.9375C164.805 65.7188 163.672 66.3438 162.328 66.8125C161 67.2812 159.438 67.5156 157.641 67.5156ZM180.258 56.9922V48.6484H180.703L193.102 33.1797H200.977L188.555 48.4609H187.172L180.258 56.9922ZM173.461 67V33.1797H180.539V67H173.461ZM193.383 67L182.531 50.9688L187.641 46.3281L201.844 67H193.383ZM204.375 67V41.875H211.219V67H204.375ZM207.797 38.6406C206.766 38.6406 205.898 38.2891 205.195 37.5859C204.492 36.8828 204.141 36.0469 204.141 35.0781C204.141 34.0938 204.492 33.2578 205.195 32.5703C205.898 31.8672 206.766 31.5156 207.797 31.5156C208.828 31.5156 209.695 31.8672 210.398 32.5703C211.102 33.2578 211.453 34.0938 211.453 35.0781C211.453 36.0469 211.102 36.8828 210.398 37.5859C209.695 38.2891 208.828 38.6406 207.797 38.6406ZM225.797 67.5156C223.016 67.5156 220.953 66.9297 219.609 65.7578C218.266 64.5859 217.594 62.6562 217.594 59.9688V47.0312H214.102V41.875H217.594V35.7344H224.508V41.875H229.102V47.0312H224.508V59.2188C224.508 60.3906 224.766 61.2109 225.281 61.6797C225.812 62.1328 226.594 62.3594 227.625 62.3594C227.938 62.3594 228.211 62.3516 228.445 62.3359C228.68 62.3047 228.898 62.2734 229.102 62.2422V67.2578C228.727 67.3203 228.258 67.375 227.695 67.4219C227.148 67.4844 226.516 67.5156 225.797 67.5156Z" fill="white"/>
</svg>
