<svg width="300" height="100" viewBox="0 0 300 100" fill="none" xmlns="http://www.w3.org/2000/svg">
<g clip-path="url(#clip0_5_37)">
<rect width="300" height="100" rx="50" fill="#04C8FF"/>
<path d="M84.8203 67.5859C82.1484 67.5859 79.8125 67.1953 77.8125 66.4141C75.8281 65.6172 74.2656 64.4844 73.125 63.0156C71.9844 61.5312 71.3438 59.75 71.2031 57.6719L71.1797 57.2969H77.8594L77.9062 57.5547C78.0625 58.4297 78.4531 59.1875 79.0781 59.8281C79.7188 60.4531 80.5469 60.9453 81.5625 61.3047C82.5781 61.6484 83.7266 61.8203 85.0078 61.8203C86.3203 61.8203 87.4453 61.6484 88.3828 61.3047C89.3359 60.9453 90.0703 60.4453 90.5859 59.8047C91.1172 59.1484 91.3828 58.3906 91.3828 57.5312V57.5078C91.3828 56.3672 90.9297 55.4766 90.0234 54.8359C89.1328 54.1797 87.6328 53.6328 85.5234 53.1953L81.9609 52.4922C78.6328 51.8203 76.125 50.6875 74.4375 49.0938C72.75 47.5 71.9062 45.4297 71.9062 42.8828V42.8594C71.9062 40.7969 72.4609 39 73.5703 37.4688C74.6797 35.9219 76.2031 34.7266 78.1406 33.8828C80.0781 33.0234 82.2969 32.5938 84.7969 32.5938C87.4062 32.5938 89.6562 33 91.5469 33.8125C93.4531 34.625 94.9375 35.7734 96 37.2578C97.0625 38.7422 97.6484 40.4688 97.7578 42.4375L97.7812 42.8828H91.1016L91.0781 42.6016C90.9531 41.7109 90.6172 40.9531 90.0703 40.3281C89.5234 39.6875 88.7969 39.1953 87.8906 38.8516C87 38.5078 85.9688 38.3359 84.7969 38.3359C83.5938 38.3359 82.5547 38.5156 81.6797 38.875C80.8047 39.2188 80.1328 39.6953 79.6641 40.3047C79.2109 40.9141 78.9844 41.625 78.9844 42.4375V42.4609C78.9844 43.5234 79.4375 44.3828 80.3438 45.0391C81.25 45.6953 82.6719 46.2188 84.6094 46.6094L88.1953 47.3359C90.5547 47.8047 92.4922 48.4531 94.0078 49.2812C95.5234 50.1094 96.6406 51.1562 97.3594 52.4219C98.0938 53.6719 98.4609 55.1797 98.4609 56.9453V56.9688C98.4609 59.1406 97.9141 61.0234 96.8203 62.6172C95.7422 64.1953 94.1797 65.4219 92.1328 66.2969C90.1016 67.1562 87.6641 67.5859 84.8203 67.5859ZM107.109 67L100.43 41.875H107.32L111.117 60.5078H111.258L115.711 41.875H122.273L126.75 60.5078H126.891L130.711 41.875H137.461L130.805 67H123.516L118.969 49.2344H118.828L114.305 67H107.109ZM140.273 67V41.875H147.117V67H140.273ZM143.695 38.6406C142.664 38.6406 141.797 38.2891 141.094 37.5859C140.391 36.8828 140.039 36.0469 140.039 35.0781C140.039 34.0938 140.391 33.2578 141.094 32.5703C141.797 31.8672 142.664 31.5156 143.695 31.5156C144.727 31.5156 145.594 31.8672 146.297 32.5703C147 33.2578 147.352 34.0938 147.352 35.0781C147.352 36.0469 147 36.8828 146.297 37.5859C145.594 38.2891 144.727 38.6406 143.695 38.6406ZM153.539 67V47.0312H150.117V41.875H153.539V39.8594C153.539 38.2188 153.812 36.8672 154.359 35.8047C154.922 34.7422 155.805 33.9531 157.008 33.4375C158.227 32.9219 159.828 32.6641 161.812 32.6641C162.438 32.6641 163.07 32.6953 163.711 32.7578C164.352 32.8047 164.867 32.8672 165.258 32.9453V37.4688C165.023 37.4219 164.75 37.3906 164.438 37.375C164.125 37.3594 163.812 37.3516 163.5 37.3516C162.375 37.3516 161.547 37.5859 161.016 38.0547C160.484 38.5234 160.219 39.2109 160.219 40.1172V41.875H165.211V47.0312H160.383V67H153.539ZM178.805 67.5156C176.023 67.5156 173.961 66.9297 172.617 65.7578C171.273 64.5859 170.602 62.6562 170.602 59.9688V47.0312H167.109V41.875H170.602V35.7344H177.516V41.875H182.109V47.0312H177.516V59.2188C177.516 60.3906 177.773 61.2109 178.289 61.6797C178.82 62.1328 179.602 62.3594 180.633 62.3594C180.945 62.3594 181.219 62.3516 181.453 62.3359C181.688 62.3047 181.906 62.2734 182.109 62.2422V67.2578C181.734 67.3203 181.266 67.375 180.703 67.4219C180.156 67.4844 179.523 67.5156 178.805 67.5156ZM200.648 67.5859C197.758 67.5859 195.25 67.0625 193.125 66.0156C191.016 64.9688 189.375 63.5078 188.203 61.6328C187.047 59.7422 186.469 57.5469 186.469 55.0469V33.1797H193.547V54.4141C193.547 55.8672 193.82 57.1328 194.367 58.2109C194.93 59.2734 195.734 60.1016 196.781 60.6953C197.844 61.2891 199.133 61.5859 200.648 61.5859C202.164 61.5859 203.445 61.2891 204.492 60.6953C205.555 60.1016 206.359 59.2734 206.906 58.2109C207.453 57.1328 207.727 55.8672 207.727 54.4141V33.1797H214.805V55.0469C214.805 57.5469 214.227 59.7422 213.07 61.6328C211.93 63.5078 210.297 64.9688 208.172 66.0156C206.062 67.0625 203.555 67.5859 200.648 67.5859ZM220.453 67V33.1797H227.531V67H220.453Z" fill="white"/>
</g>
<defs>
<clipPath id="clip0_5_37">
<rect width="300" height="100" fill="white"/>
</clipPath>
</defs>
</svg>
