<svg width="245" height="99" viewBox="0 0 245 99" fill="none" xmlns="http://www.w3.org/2000/svg">
<rect width="245" height="99" rx="49.5" fill="#04C8FF"/>
<path d="M57.3203 67.5859C54.6484 67.5859 52.3125 67.1953 50.3125 66.4141C48.3281 65.6172 46.7656 64.4844 45.625 63.0156C44.4844 61.5312 43.8438 59.75 43.7031 57.6719L43.6797 57.2969H50.3594L50.4062 57.5547C50.5625 58.4297 50.9531 59.1875 51.5781 59.8281C52.2188 60.4531 53.0469 60.9453 54.0625 61.3047C55.0781 61.6484 56.2266 61.8203 57.5078 61.8203C58.8203 61.8203 59.9453 61.6484 60.8828 61.3047C61.8359 60.9453 62.5703 60.4453 63.0859 59.8047C63.6172 59.1484 63.8828 58.3906 63.8828 57.5312V57.5078C63.8828 56.3672 63.4297 55.4766 62.5234 54.8359C61.6328 54.1797 60.1328 53.6328 58.0234 53.1953L54.4609 52.4922C51.1328 51.8203 48.625 50.6875 46.9375 49.0938C45.25 47.5 44.4062 45.4297 44.4062 42.8828V42.8594C44.4062 40.7969 44.9609 39 46.0703 37.4688C47.1797 35.9219 48.7031 34.7266 50.6406 33.8828C52.5781 33.0234 54.7969 32.5938 57.2969 32.5938C59.9062 32.5938 62.1562 33 64.0469 33.8125C65.9531 34.625 67.4375 35.7734 68.5 37.2578C69.5625 38.7422 70.1484 40.4688 70.2578 42.4375L70.2812 42.8828H63.6016L63.5781 42.6016C63.4531 41.7109 63.1172 40.9531 62.5703 40.3281C62.0234 39.6875 61.2969 39.1953 60.3906 38.8516C59.5 38.5078 58.4688 38.3359 57.2969 38.3359C56.0938 38.3359 55.0547 38.5156 54.1797 38.875C53.3047 39.2188 52.6328 39.6953 52.1641 40.3047C51.7109 40.9141 51.4844 41.625 51.4844 42.4375V42.4609C51.4844 43.5234 51.9375 44.3828 52.8438 45.0391C53.75 45.6953 55.1719 46.2188 57.1094 46.6094L60.6953 47.3359C63.0547 47.8047 64.9922 48.4531 66.5078 49.2812C68.0234 50.1094 69.1406 51.1562 69.8594 52.4219C70.5938 53.6719 70.9609 55.1797 70.9609 56.9453V56.9688C70.9609 59.1406 70.4141 61.0234 69.3203 62.6172C68.2422 64.1953 66.6797 65.4219 64.6328 66.2969C62.6016 67.1562 60.1641 67.5859 57.3203 67.5859ZM79.6094 67L72.9297 41.875H79.8203L83.6172 60.5078H83.7578L88.2109 41.875H94.7734L99.25 60.5078H99.3906L103.211 41.875H109.961L103.305 67H96.0156L91.4688 49.2344H91.3281L86.8047 67H79.6094ZM112.773 67V41.875H119.617V67H112.773ZM116.195 38.6406C115.164 38.6406 114.297 38.2891 113.594 37.5859C112.891 36.8828 112.539 36.0469 112.539 35.0781C112.539 34.0938 112.891 33.2578 113.594 32.5703C114.297 31.8672 115.164 31.5156 116.195 31.5156C117.227 31.5156 118.094 31.8672 118.797 32.5703C119.5 33.2578 119.852 34.0938 119.852 35.0781C119.852 36.0469 119.5 36.8828 118.797 37.5859C118.094 38.2891 117.227 38.6406 116.195 38.6406ZM126.039 67V47.0312H122.617V41.875H126.039V39.8594C126.039 38.2188 126.312 36.8672 126.859 35.8047C127.422 34.7422 128.305 33.9531 129.508 33.4375C130.727 32.9219 132.328 32.6641 134.312 32.6641C134.938 32.6641 135.57 32.6953 136.211 32.7578C136.852 32.8047 137.367 32.8672 137.758 32.9453V37.4688C137.523 37.4219 137.25 37.3906 136.938 37.375C136.625 37.3594 136.312 37.3516 136 37.3516C134.875 37.3516 134.047 37.5859 133.516 38.0547C132.984 38.5234 132.719 39.2109 132.719 40.1172V41.875H137.711V47.0312H132.883V67H126.039ZM151.305 67.5156C148.523 67.5156 146.461 66.9297 145.117 65.7578C143.773 64.5859 143.102 62.6562 143.102 59.9688V47.0312H139.609V41.875H143.102V35.7344H150.016V41.875H154.609V47.0312H150.016V59.2188C150.016 60.3906 150.273 61.2109 150.789 61.6797C151.32 62.1328 152.102 62.3594 153.133 62.3594C153.445 62.3594 153.719 62.3516 153.953 62.3359C154.188 62.3047 154.406 62.2734 154.609 62.2422V67.2578C154.234 67.3203 153.766 67.375 153.203 67.4219C152.656 67.4844 152.023 67.5156 151.305 67.5156ZM173.148 67.5859C170.258 67.5859 167.75 67.0625 165.625 66.0156C163.516 64.9688 161.875 63.5078 160.703 61.6328C159.547 59.7422 158.969 57.5469 158.969 55.0469V33.1797H166.047V54.4141C166.047 55.8672 166.32 57.1328 166.867 58.2109C167.43 59.2734 168.234 60.1016 169.281 60.6953C170.344 61.2891 171.633 61.5859 173.148 61.5859C174.664 61.5859 175.945 61.2891 176.992 60.6953C178.055 60.1016 178.859 59.2734 179.406 58.2109C179.953 57.1328 180.227 55.8672 180.227 54.4141V33.1797H187.305V55.0469C187.305 57.5469 186.727 59.7422 185.57 61.6328C184.43 63.5078 182.797 64.9688 180.672 66.0156C178.562 67.0625 176.055 67.5859 173.148 67.5859ZM192.953 67V33.1797H200.031V67H192.953Z" fill="white"/>
</svg>
