<svg width="185" height="99" viewBox="0 0 185 99" fill="none" xmlns="http://www.w3.org/2000/svg">
<rect width="185" height="99" rx="49.5" fill="#76CDF2"/>
<path d="M56.1484 67.5859C53.2578 67.5859 50.75 67.0625 48.625 66.0156C46.5156 64.9688 44.875 63.5078 43.7031 61.6328C42.5469 59.7422 41.9688 57.5469 41.9688 55.0469V33.1797H49.0469V54.4141C49.0469 55.8672 49.3203 57.1328 49.8672 58.2109C50.4297 59.2734 51.2344 60.1016 52.2812 60.6953C53.3438 61.2891 54.6328 61.5859 56.1484 61.5859C57.6641 61.5859 58.9453 61.2891 59.9922 60.6953C61.0547 60.1016 61.8594 59.2734 62.4062 58.2109C62.9531 57.1328 63.2266 55.8672 63.2266 54.4141V33.1797H70.3047V55.0469C70.3047 57.5469 69.7266 59.7422 68.5703 61.6328C67.4297 63.5078 65.7969 64.9688 63.6719 66.0156C61.5625 67.0625 59.0547 67.5859 56.1484 67.5859ZM75.9531 67V33.1797H83.0312V67H75.9531ZM95.4531 56.9922V48.6484H95.8984L108.297 33.1797H116.172L103.75 48.4609H102.367L95.4531 56.9922ZM88.6562 67V33.1797H95.7344V67H88.6562ZM108.578 67L97.7266 50.9688L102.836 46.3281L117.039 67H108.578ZM119.57 67V41.875H126.414V67H119.57ZM122.992 38.6406C121.961 38.6406 121.094 38.2891 120.391 37.5859C119.688 36.8828 119.336 36.0469 119.336 35.0781C119.336 34.0938 119.688 33.2578 120.391 32.5703C121.094 31.8672 121.961 31.5156 122.992 31.5156C124.023 31.5156 124.891 31.8672 125.594 32.5703C126.297 33.2578 126.648 34.0938 126.648 35.0781C126.648 36.0469 126.297 36.8828 125.594 37.5859C124.891 38.2891 124.023 38.6406 122.992 38.6406ZM140.992 67.5156C138.211 67.5156 136.148 66.9297 134.805 65.7578C133.461 64.5859 132.789 62.6562 132.789 59.9688V47.0312H129.297V41.875H132.789V35.7344H139.703V41.875H144.297V47.0312H139.703V59.2188C139.703 60.3906 139.961 61.2109 140.477 61.6797C141.008 62.1328 141.789 62.3594 142.82 62.3594C143.133 62.3594 143.406 62.3516 143.641 62.3359C143.875 62.3047 144.094 62.2734 144.297 62.2422V67.2578C143.922 67.3203 143.453 67.375 142.891 67.4219C142.344 67.4844 141.711 67.5156 140.992 67.5156Z" fill="white"/>
</svg>
